#!OML:ASF X:\für Bonn\!DataBase\2005_08_10_Bjorn_Final\c3d\bjorn.ASF
:FULLY-SPECIFIED
:DEGREES
185
root -1.90423 18.937 -1.46651 602.984 80.4238 -108.031
lowerback 3.01981 2.53365 -5.15854
upperback 12.3135 4.75042 -3.43395
thorax 11.4773 2.35709 -0.45969
lowerneck 4.93902 -4.44622 -1.1179
upperneck 20.9634 -6.74363 10.2501
head 5.90092 -2.38911 3.25133
rclavicle 1.11319e-014 -1.27222e-014
rhumerus -29.4797 -21.0186 -79.7106
rradius 28.9193
rwrist 9.00338
rhand -10.3833 16.3703
rfingers 7.12502
rthumb 15.6145 -13.0195
lclavicle 1.11319e-014 -1.27222e-014
lhumerus 2.4172 8.36245 68.1428
lradius 50.4528
lwrist -14.5316
lhand -36.2985 -15.2053
lfingers 7.12502
lthumb -9.39784 14.5652
rfemur -43.2031 -13.0984 17.9897
rtibia 64.8385
rfoot -7.98104 22.4106
rtoes -20.5082
lfemur -0.714762 -6.82637 -10.3092
ltibia 35.219
lfoot -19.4882 -1.28995
ltoes -9.84261
186
root -1.85054 18.9183 -1.46575 602.396 80.4588 -108.605
lowerback 2.95359 2.57203 -5.1402
upperback 12.3371 4.82304 -3.50433
thorax 11.5533 2.39989 -0.536196
lowerneck 5.05014 -4.48837 -1.08623
upperneck 20.8235 -6.80511 10.3675
head 5.84421 -2.41827 3.28263
rclavicle -8.74653e-015 -5.40694e-014
rhumerus -29.4436 -21.2114 -79.6723
rradius 28.9246
rwrist 9.23781
rhand -10.3899 16.3895
rfingers 7.12502
rthumb 15.6081 -13.0008
lclavicle -8.74653e-015 -5.40694e-014
lhumerus 2.644 8.43364 68.4188
lradius 50.4934
lwrist -14.5887
lhand -36.2899 -15.2196
lfingers 7.12502
lthumb -9.38951 14.5513
rfemur -42.7776 -12.9864 17.8958
rtibia 63.3774
rfoot -7.55569 22.1234
rtoes -20.0903
lfemur -0.610027 -6.97693 -10.4424
ltibia 35.4341
lfoot -19.7672 -1.12107
ltoes -10.034
187
root -1.79667 18.8989 -1.46441 601.702 80.5077 -109.291
lowerback 2.89145 2.61154 -5.15909
upperback 12.3697 4.89826 -3.55905
thorax 11.634 2.43928 -0.575203
lowerneck 5.10554 -4.5423 -1.04113
upperneck 20.7402 -6.88029 10.436
head 5.81414 -2.45207 3.29459
rclavicle 6.36111e-015 9.54166e-015
rhumerus -29.3946 -21.4233 -79.6001
rradius 28.9283
rwrist 9.47118
rhand -10.3657 16.4491
rfingers 7.12502
rthumb 15.6315 -12.9394
lclavicle 6.36111e-015 9.54166e-015
lhumerus 2.87774 8.49466 68.7172
lradius 50.5175
lwrist -14.6755
lhand -36.3297 -15.222
lfingers 7.12502
lthumb -9.4279 14.5472
rfemur -42.3462 -12.8931 17.789
rtibia 61.9669
rfoot -7.26992 21.7906
rtoes -20.1362
lfemur -0.524048 -7.1195 -10.5853
ltibia 35.6641
lfoot -20.0611 -1.02342
ltoes -10.2155
188
root -1.74342 18.8784 -1.46311 600.995 80.5532 -110.019
lowerback 2.81577 2.64685 -5.15041
upperback 12.3878 4.9674 -3.6312
thorax 11.7097 2.47937 -0.647927
lowerneck 5.22708 -4.59194 -0.999609
upperneck 20.5776 -6.94868 10.5477
head 5.74869 -2.48615 3.32223
rclavicle -2.3059e-014 -1.27222e-014
rhumerus -29.3549 -21.5506 -79.5761
rradius 28.9597
rwrist 9.60378
rhand -10.3343 16.4536
rfingers 7.12502
rthumb 15.6617 -12.9325
lclavicle -2.3059e-014 -1.27222e-014
lhumerus 3.08343 8.52259 68.9631
lradius 50.5331
lwrist -14.7256
lhand -36.3836 -15.2511
lfingers 7.12502
lthumb -9.47993 14.5157
rfemur -41.9363 -12.8153 17.6881
rtibia 60.5809
rfoot -6.97446 21.5006
rtoes -20.1892
lfemur -0.472832 -7.27364 -10.7356
ltibia 35.9034
lfoot -20.343 -0.866351
ltoes -10.594
189
root -1.6894 18.859 -1.46118 600.365 80.5993 -110.671
lowerback 2.7438 2.67812 -5.17301
upperback 12.4014 5.02676 -3.6735
thorax 11.7727 2.50892 -0.672325
lowerneck 5.33296 -4.63371 -0.983229
upperneck 20.46 -7.00278 10.6172
head 5.69883 -2.51527 3.34122
rclavicle 3.97569e-015 -2.8625e-014
rhumerus -29.3118 -21.6003 -79.5327
rradius 28.9923
rwrist 9.64978
rhand -10.2833 16.4745
rfingers 7.12502
rthumb 15.7109 -12.9077
lclavicle 3.97569e-015 -2.8625e-014
lhumerus 3.2113 8.58841 69.2137
lradius 50.5892
lwrist -14.8015
lhand -36.4428 -15.2299
lfingers 7.12502
lthumb -9.53707 14.5342
rfemur -41.5191 -12.7173 17.5929
rtibia 59.2281
rfoot -6.63226 21.1897
rtoes -19.9035
lfemur -0.419513 -7.40318 -10.8687
ltibia 36.1459
lfoot -20.6307 -0.784151
ltoes -10.6691
190
root -1.63504 18.839 -1.45944 599.603 80.6801 -111.46
lowerback 2.6723 2.70256 -5.22025
upperback 12.4116 5.07976 -3.73316
thorax 11.832 2.5343 -0.702433
lowerneck 5.45177 -4.66644 -0.96553
upperneck 20.3282 -7.04408 10.6954
head 5.64173 -2.53874 3.3635
rclavicle 5.56597e-015 -3.49861e-014
rhumerus -29.2693 -21.7272 -79.4751
rradius 28.9931
rwrist 9.84967
rhand -10.2335 16.5403
rfingers 7.12502
rthumb 15.7588 -12.8381
lclavicle 5.56597e-015 -3.49861e-014
lhumerus 3.30809 8.64178 69.4312
lradius 50.6709
lwrist -14.8444
lhand -36.4727 -15.2375
lfingers 7.12502
lthumb -9.56587 14.5253
rfemur -41.0937 -12.6344 17.4598
rtibia 57.8984
rfoot -6.36768 20.8992
rtoes -19.9733
lfemur -0.375805 -7.52335 -11.0511
ltibia 36.3909
lfoot -20.929 -0.643008
ltoes -10.9302
191
root -1.58107 18.8182 -1.45736 598.894 80.7642 -112.225
lowerback 2.57761 2.74417 -5.2538
upperback 12.4135 5.15669 -3.79652
thorax 11.8966 2.57252 -0.74103
lowerneck 5.57119 -4.71815 -0.930788
upperneck 20.1752 -7.11027 10.7781
head 5.57927 -2.57406 3.38332
rclavicle -6.36111e-015 -6.36111e-015
rhumerus -29.237 -21.8568 -79.4299
rradius 29.0123
rwrist 9.97627
rhand -10.1904 16.5524
rfingers 7.12502
rthumb 15.8003 -12.8228
lclavicle -6.36111e-015 -6.36111e-015
lhumerus 3.40381 8.62247 69.6393
lradius 50.7716
lwrist -14.8295
lhand -36.5375 -15.2352
lfingers 7.12502
lthumb -9.62847 14.5248
rfemur -40.7044 -12.5706 17.3372
rtibia 56.6001
rfoot -6.06979 20.6203
rtoes -20.0025
lfemur -0.358658 -7.64652 -11.2296
ltibia 36.6332
lfoot -21.2099 -0.5501
ltoes -11.0089
192
root -1.52567 18.7972 -1.45601 598.165 80.8702 -113.005
lowerback 2.4924 2.78602 -5.31637
upperback 12.4141 5.23259 -3.84776
thorax 11.9506 2.60643 -0.751279
lowerneck 5.69119 -4.76379 -0.929798
upperneck 20.04 -7.1706 10.8733
head 5.5234 -2.60736 3.41338
rclavicle 2.62396e-014 -1.27222e-014
rhumerus -29.2305 -21.84 -79.3731
rradius 29.0821
rwrist 10.011
rhand -10.1217 16.5379
rfingers 7.12502
rthumb 15.8665 -12.832
lclavicle 2.62396e-014 -1.27222e-014
lhumerus 3.48626 8.58524 69.8151
lradius 50.8571
lwrist -14.8259
lhand -36.5757 -15.1404
lfingers 7.12502
lthumb -9.66524 14.6178
rfemur -40.2956 -12.5009 17.1824
rtibia 55.3242
rfoot -5.77791 20.3847
rtoes -19.9875
lfemur -0.322672 -7.73931 -11.4292
ltibia 36.871
lfoot -21.4762 -0.472852
ltoes -11.0011
193
root -1.4709 18.7754 -1.4545 597.385 80.946 -113.848
lowerback 2.40877 2.80868 -5.3355
upperback 12.4192 5.28242 -3.90792
thorax 12.0136 2.63272 -0.796658
lowerneck 5.78034 -4.79693 -0.922161
upperneck 19.9086 -7.21413 10.9533
head 5.4722 -2.6324 3.43731
rclavicle -3.65764e-014 -7.95139e-014
rhumerus -29.176 -21.8776 -79.3439
rradius 29.1052
rwrist 10.1055
rhand -10.0472 16.5462
rfingers 7.12502
rthumb 15.9382 -12.818
lclavicle -3.65764e-014 -7.95139e-014
lhumerus 3.56385 8.63838 69.9611
lradius 50.9545
lwrist -14.9626
lhand -36.5759 -15.0866
lfingers 7.12502
lthumb -9.66546 14.6717
rfemur -39.9029 -12.4784 17.0665
rtibia 54.08
rfoot -5.5411 20.1119
rtoes -20.2566
lfemur -0.307802 -7.82796 -11.5983
ltibia 37.1037
lfoot -21.753 -0.352627
ltoes -11.3892
194
root -1.41518 18.7555 -1.45347 596.622 81.0723 -114.697
lowerback 2.29735 2.85037 -5.39939
upperback 12.4114 5.36102 -3.97315
thorax 12.0755 2.66817 -0.819437
lowerneck 5.92056 -4.8397 -0.893181
upperneck 19.7434 -7.26589 11.0443
head 5.40223 -2.66221 3.46203
rclavicle -2.22639e-014 2.54444e-014
rhumerus -29.1563 -21.8936 -79.307
rradius 29.139
rwrist 10.189
rhand -10.0108 16.5365
rfingers 7.12502
rthumb 15.9733 -12.8249
lclavicle -2.22639e-014 2.54444e-014
lhumerus 3.62707 8.63659 70.0875
lradius 51.058
lwrist -15.0512
lhand -36.5383 -15.0848
lfingers 7.12502
lthumb -9.62924 14.6751
rfemur -39.5274 -12.4313 16.9035
rtibia 52.8509
rfoot -5.26865 19.8442
rtoes -20.3021
lfemur -0.301408 -7.88855 -11.8116
ltibia 37.3253
lfoot -22.0406 -0.290856
ltoes -11.4395
